<?xml version="1.0" encoding="utf-8"?>
<!-- Generator: Adobe Illustrator 19.0.0, SVG Export Plug-In . SVG Version: 6.00 Build 0)  -->
<svg version="1.1" id="billing_x5F_issues" xmlns="http://www.w3.org/2000/svg" xmlns:xlink="http://www.w3.org/1999/xlink" x="0px"
	 y="0px" viewBox="0 0 131 162" enable-background="new 0 0 131 162" xml:space="preserve">
<linearGradient id="bg_x5F_grad_x5F_25_1_" gradientUnits="userSpaceOnUse" x1="63.5" y1="92.375" x2="63.5" y2="50.375">
	<stop  offset="0.0016" style="stop-color:#F8951D;stop-opacity:0"/>
	<stop  offset="1" style="stop-color:#F8951D;stop-opacity:0.25"/>
</linearGradient>
<path id="bg_x5F_grad_x5F_25" fill-rule="evenodd" clip-rule="evenodd" fill="url(#bg_x5F_grad_x5F_25_1_)" d="M52,82.375
	c0,0-4,2.999-4,6c0,3.001,2,4,2,4h-5l-18-8v-34h73v32H52z M65,58.375c-6.075,0-11,4.925-11,11s4.925,11,11,11s11-4.925,11-11
	S71.075,58.375,65,58.375z"/>
<path id="line_x5F_75" opacity="0.75" fill-rule="evenodd" clip-rule="evenodd" fill="#B49069" d="M53.005,69.36
	c0-6.577,5.38-11.926,11.992-11.926c6.612,0,11.991,5.35,11.991,11.926c0,6.576-5.379,11.926-11.991,11.926
	C58.384,81.286,53.005,75.936,53.005,69.36z M74.989,69.36c0-5.48-4.483-9.939-9.993-9.939c-5.51,0-9.993,4.459-9.993,9.939
	c0,5.48,4.483,9.938,9.993,9.938C70.506,79.298,74.989,74.839,74.989,69.36z M103.062,82.476l8.994,6.584l-1.185,1.602l-8.729-6.391
	H51.833c-0.624,0.483-2.326,1.971-2.326,3.832c0,1.574,1.534,3.327,2.379,4.115h17.232v1.988H51.507l-0.001,0.004H45.51
	l-0.388-0.078l-18.751-7.853c-1.236,0.146-3.946,0.755-4.854,2.258c-0.982,1.629-0.497,4.617-0.134,6.018l24.403,14.562h35.498
	l11.807-4.893l0.832,0.029l16.988,8.477l-0.896,1.776l-16.579-8.272l-11.568,4.794l-0.385,0.077H45.51l-0.514-0.142L20.014,96.055
	l-0.442-0.564c-0.063-0.206-1.517-5.077,0.232-7.977c0.918-1.522,2.723-2.337,4.222-2.771V47.494h78.944v34.785h-2.998V50.475
	H27.023v33.919l18.689,7.826H49.2c-0.844-1.083-1.692-2.559-1.692-4.119c0-1.562,0.726-2.866,1.51-3.835H39.015v-0.994
	c0-3.836-3.138-6.957-6.995-6.957H31.02V62.403h0.999c3.857,0,6.995-3.121,6.995-6.957v-0.994H87.98v0.994
	c0,3.836,3.138,6.957,6.995,6.957h0.999V82.28h-1.999V64.335c-4.162-0.459-7.477-3.756-7.939-7.896H40.958
	c-0.462,4.14-3.777,7.437-7.939,7.896v10.049c4.162,0.459,7.477,3.756,7.939,7.896h12.453v0.003h49.059L103.062,82.476z"/>
</svg>
