<?xml version="1.0" encoding="utf-8"?>
<!-- Generator: Adobe Illustrator 19.0.0, SVG Export Plug-In . SVG Version: 6.00 Build 0)  -->
<svg version="1.1" id="rule_x5F_violatons" xmlns="http://www.w3.org/2000/svg" xmlns:xlink="http://www.w3.org/1999/xlink" x="0px"
	 y="0px" viewBox="0 0 131 162" enable-background="new 0 0 131 162" xml:space="preserve">
<linearGradient id="bg_x5F_grad_x5F_25_1_" gradientUnits="userSpaceOnUse" x1="65.5" y1="116.125" x2="65.5" y2="45.875">
	<stop  offset="0.0016" style="stop-color:#F8951D;stop-opacity:0"/>
	<stop  offset="1" style="stop-color:#F8951D;stop-opacity:0.25"/>
</linearGradient>
<path id="bg_x5F_grad_x5F_25" fill-rule="evenodd" clip-rule="evenodd" fill="url(#bg_x5F_grad_x5F_25_1_)" d="M65.5,116.125
	c-19.399,0-35.125-15.726-35.125-35.125S46.101,45.875,65.5,45.875S100.625,61.601,100.625,81S84.899,116.125,65.5,116.125z
	 M65.5,109.094c6.219,0,11.947-2.045,16.601-5.466L42.872,64.399C39.452,69.053,37.406,74.781,37.406,81
	C37.406,96.516,49.984,109.094,65.5,109.094z M65.5,52.906c-6.444,0-12.363,2.193-17.103,5.842l39.355,39.355
	c3.649-4.74,5.842-10.659,5.842-17.103C93.594,65.484,81.016,52.906,65.5,52.906z"/>
<path id="line_x5F_75" opacity="0.75" fill="#B49069" d="M65.5,45.875c19.399,0,35.125,15.726,35.125,35.125
	S84.899,116.125,65.5,116.125S30.375,100.399,30.375,81S46.101,45.875,65.5,45.875 M87.752,98.103
	c3.649-4.74,5.842-10.659,5.842-17.103c0-15.516-12.578-28.094-28.094-28.094c-6.444,0-12.363,2.193-17.103,5.842L87.752,98.103
	 M65.5,109.094c6.219,0,11.947-2.045,16.601-5.466L42.872,64.399C39.452,69.053,37.406,74.781,37.406,81
	C37.406,96.516,49.984,109.094,65.5,109.094 M65.5,42.875c-21.022,0-38.125,17.103-38.125,38.125s17.103,38.125,38.125,38.125
	S103.625,102.022,103.625,81S86.522,42.875,65.5,42.875L65.5,42.875z M53.098,59.206c3.772-2.168,8.001-3.3,12.402-3.3
	c13.837,0,25.094,11.257,25.094,25.094c0,4.401-1.132,8.63-3.3,12.402L53.098,59.206L53.098,59.206z M65.5,106.094
	c-13.837,0-25.094-11.257-25.094-25.094c0-4.169,1.025-8.202,2.989-11.836l33.941,33.941
	C73.702,105.069,69.669,106.094,65.5,106.094L65.5,106.094z"/>
</svg>
