<?xml version="1.0" encoding="utf-8"?>
<!-- Generator: Adobe Illustrator 19.0.0, SVG Export Plug-In . SVG Version: 6.00 Build 0)  -->
<svg version="1.1" id="technical_x5F_issues" xmlns="http://www.w3.org/2000/svg" xmlns:xlink="http://www.w3.org/1999/xlink"
	 x="0px" y="0px" viewBox="0 0 131 162" enable-background="new 0 0 131 162" xml:space="preserve">
<linearGradient id="bg_x5F_grad_x5F_25_1_" gradientUnits="userSpaceOnUse" x1="65.4995" y1="121.376" x2="65.4995" y2="40.6221">
	<stop  offset="0.0016" style="stop-color:#F8951D;stop-opacity:0"/>
	<stop  offset="1" style="stop-color:#F8951D;stop-opacity:0.25"/>
</linearGradient>
<path id="bg_x5F_grad_x5F_25" fill-rule="evenodd" clip-rule="evenodd" fill="url(#bg_x5F_grad_x5F_25_1_)" d="M105.89,104.766
	l-1.075,2.461l-7.964-3.4l-1.45,0.152l-4.637,3.255l-0.589,1.601l1.357,5.253l0.863,1.004l7.28,3.108l-3.208,3.177l-8.08-2.355
	l-3.495-3.448l-4.369-12.393l-0.357-0.564L43.546,66.22l-0.702-0.393l-13.382-3.263l-4.353-5.43l1.078-2.442l7.869,3.326
	l1.447-0.156l4.615-3.25l0.59-1.593l-1.318-5.201l-0.869-1.012l-7.167-3.029l3.186-3.156l7.985,2.29l3.424,3.377l4.1,12.533
	l0.368,0.597l36.619,36.395l0.732,0.4l13.7,3.046L105.89,104.766z"/>
<path id="line_x5F_75" opacity="0.75" fill-rule="evenodd" clip-rule="evenodd" fill="#B49069" d="M106.967,109.788l-1.962,0.779
	l-8.563-3.657l-3.105,2.18l0.913,3.534l8.652,3.694l0.466,2.443l-5.42,5.366l-1.474,0.375l-9.292-2.708l-0.633-0.373l-4.01-3.956
	l-0.361-0.568l-4.37-12.396L63.352,90.132l-11.216,10.927l2.979,2.979l-20.086,20.084L23.9,122.532l-1.59-11.126l20.086-20.084
	l2.673,2.673l11.257-10.846L41.729,68.64l-13.472-3.285l-0.814-0.519l-5.241-6.537l-0.202-1.542l2.041-4.624l1.955-0.776
	l8.461,3.577l3.091-2.177l-0.882-3.479l-8.542-3.61l-0.471-2.445l5.4-5.347l1.468-0.376l9.196,2.637l0.639,0.374l3.955,3.901
	l0.372,0.601l4.101,12.536l14.145,14.059l14.426-13.89l1.484-8.906l14.955-6.646l5.474,5.473l-6.595,14.837l-8.175,2.229
	L74.43,79.062l14.409,14.321l13.791,3.066l0.843,0.524l5.322,6.623l0.206,1.539L106.967,109.788z M42.397,94.148L24.43,112.112
	l1.236,8.654l8.656,1.236l17.967-17.965L42.397,94.148z M46.483,95.408l4.239,4.239l11.132-11.002l-4.04-4.016L46.483,95.408z
	 M87.46,62.914l7.772-2.119l5.652-12.716l-3.533-3.532l-12.718,5.652l-1.413,8.477L68.422,73.09l4.505,4.477L87.46,62.914z
	 M101.466,99.26l-13.7-3.046l-0.732-0.4L50.415,59.419l-0.368-0.597l-4.1-12.533l-3.424-3.377l-7.985-2.29l-3.186,3.156l7.167,3.029
	l0.869,1.012l1.318,5.201l-0.59,1.593l-4.615,3.25l-1.447,0.156l-7.869-3.326l-1.078,2.442l4.353,5.43l13.382,3.263l0.702,0.393
	l36.619,36.396l0.357,0.564l4.369,12.393l3.495,3.448l8.08,2.355l3.208-3.177l-7.28-3.108l-0.863-1.004l-1.357-5.253l0.589-1.601
	l4.637-3.255l1.45-0.152l7.964,3.4l1.075-2.461L101.466,99.26z"/>
</svg>
