<?xml version="1.0" encoding="utf-8"?>
<!-- Generator: Adobe Illustrator 19.0.0, SVG Export Plug-In . SVG Version: 6.00 Build 0)  -->
<svg version="1.1" id="account_x5F_management" xmlns="http://www.w3.org/2000/svg" xmlns:xlink="http://www.w3.org/1999/xlink"
	 x="0px" y="0px" viewBox="0 0 131 162" enable-background="new 0 0 131 162" xml:space="preserve">
<linearGradient id="bg_x5F_grad_x5F_25_1_" gradientUnits="userSpaceOnUse" x1="65.4062" y1="103.6909" x2="65.4062" y2="35.4979">
	<stop  offset="0.0016" style="stop-color:#F8951D;stop-opacity:0"/>
	<stop  offset="1" style="stop-color:#F8951D;stop-opacity:0.25"/>
</linearGradient>
<path id="bg_x5F_grad_x5F_25" fill-rule="evenodd" clip-rule="evenodd" fill="url(#bg_x5F_grad_x5F_25_1_)" d="M92.869,74.796
	l-5.267,4.335v22.895l-2.511,1.665V65.024l-7.63-4.021l-2.006-0.999h-20.11l-2.084,1.039l-7.541,3.981v38.667l-2.511-1.665V79.131
	l-5.267-4.335V60.675l5.25-4.092L44,50.364l4-8l8.885-4.086l8.753-2.779l8.409,2.832l8.806,4.072l3.749,7.457l1.018,6.723
	l5.251,4.092V74.796z"/>
<path id="line_x5F_75" opacity="0.75" fill-rule="evenodd" clip-rule="evenodd" fill="#B49069" d="M118.151,129.503
	c-0.019-0.044-1.835-4.297-3.89-9.652c-5.541-2.811-7.331-3.691-11.535-5.76l-6.313-3.11l-0.116-0.115
	c-0.679-0.674-1.288-1.278-1.847-1.832L78.24,128.816L65.5,117.247l-12.74,11.569l-16.211-19.783
	c-0.558,0.554-1.167,1.159-1.847,1.832l-0.116,0.115l-6.305,3.107c-4.328,2.13-6.002,2.954-11.544,5.764
	c-2.055,5.355-3.87,9.608-3.889,9.652l-1.847-0.781c0.019-0.044,1.901-4.455,3.998-9.939l0.137-0.359l0.344-0.174
	c5.829-2.958,7.61-3.833,11.91-5.95l6.01-2.96c4.881-4.842,6.43-6.391,6.798-6.76V79.925l-4.604-3.095l-0.662-1.24V59.877
	l0.666-1.242l4.717-3.15l0.955-6.306l0.142-0.447l4.213-8.381l0.735-0.698l9.636-4.249l9.197-2.907l0.934,0.008l8.843,2.958
	l9.48,4.19l0.735,0.698l4.214,8.381l0.142,0.447l0.954,6.306l4.717,3.15l0.666,1.242V75.59l-0.662,1.24l-4.605,3.096v22.636
	l0.087-0.086c0.005,0.005,1.118,1.127,6.9,6.862l6.018,2.965c4.297,2.114,6.076,2.99,11.901,5.945l0.345,0.174l0.137,0.359
	c2.096,5.485,3.979,9.895,3.998,9.939L118.151,129.503z M65.5,116.421l17.585-11.659v-7.834c-1.284,1.156-3.931,3.55-9.35,8.481
	l-0.677,0.261H57.845l-0.671-0.256c-5.391-4.83-8.108-7.27-9.447-8.476v7.699L65.5,116.421z M83.086,94.254V65.672l-8.027-3.548
	l-0.082-0.125H55.836l-0.082,0.125l-8.027,3.548v28.571l0.134,0.122c0.006,0.006,1.369,1.246,10.369,9.309h14.438
	c9.604-8.736,10.291-9.318,10.317-9.338L83.086,94.254z M52.974,125.919l9.806-8.904l-16.763-11.114l-0.734,1.095l-4.012-2.66
	c-0.497,0.496-1.483,1.479-3.294,3.279L52.974,125.919z M44.211,49.859l-1.018,6.723l-0.649,1.019l-4.601,3.072v14.121l4.604,3.095
	l0.662,1.24v22.895l2.511,1.665V65.024l0.596-0.911l6.946-3.07l-5.303-18.639L44.211,49.859z M49.947,41.344l5.329,18.73l0.07-0.07
	h4.54l-3.002-21.727L49.947,41.344z M65.637,35.498l-6.702,2.118l2.958,22.388h7.027L72,37.622L65.637,35.498z M74.046,38.33
	l-3.12,21.674h4.53l5.407-18.661L74.046,38.33z M92.869,74.796V60.675l-4.601-3.073l-0.65-1.019l-1.018-6.723l-3.749-7.457
	l-5.39,18.602l7.034,3.109l0.595,0.911v38.666l2.511-1.665V79.131l0.662-1.24L92.869,74.796z M89.655,104.262l-4.125,2.735
	l-0.676-1.009L68.22,117.015l9.806,8.904l14.998-18.303C91.112,105.716,90.124,104.73,89.655,104.262z"/>
</svg>
